<?xml version="1.0" standalone="no"?><!DOCTYPE svg PUBLIC "-//W3C//DTD SVG 1.1//EN" "http://www.w3.org/Graphics/SVG/1.1/DTD/svg11.dtd"><svg t="1668068087266" class="icon" viewBox="0 0 1024 1024" version="1.1" xmlns="http://www.w3.org/2000/svg" p-id="7688" xmlns:xlink="http://www.w3.org/1999/xlink" width="128" height="128"><path d="M856.97 854.5H167.03c-28.57 0-51.82-23.25-51.82-51.82V221.32c0-28.57 23.25-51.82 51.82-51.82h689.93c28.57 0 51.82 23.25 51.82 51.82v581.36c0 28.57-23.24 51.82-51.81 51.82zM167.03 213.92c-4.08 0-7.4 3.33-7.4 7.4v581.36c0 4.08 3.33 7.4 7.4 7.4h689.93c4.08 0 7.4-3.33 7.4-7.4V221.32c0-4.08-3.33-7.4-7.4-7.4H167.03z" p-id="7689" fill="#4282fd"></path><path d="M886.58 391.58H137.42c-12.26 0-22.21-9.95-22.21-22.21s9.95-22.21 22.21-22.21h749.15c12.26 0 22.21 9.95 22.21 22.21s-9.94 22.21-22.2 22.21z" p-id="7690" fill="#4282fd"></path><path d="M239.58 280.54m-29.61 0a29.61 29.61 0 1 0 59.22 0 29.61 29.61 0 1 0-59.22 0Z" fill="#4282fd" p-id="7691"></path><path d="M328.41 280.54m-29.61 0a29.61 29.61 0 1 0 59.22 0 29.61 29.61 0 1 0-59.22 0Z" fill="#4282fd" p-id="7692"></path><path d="M417.24 280.54m-29.61 0a29.61 29.61 0 1 0 59.22 0 29.61 29.61 0 1 0-59.22 0Z" fill="#4282fd" p-id="7693"></path><path d="M346.61 682.6a22.1 22.1 0 0 1-15.7-6.51l-83.77-83.74a22.2 22.2 0 0 1-6.51-15.7c0-5.88 2.34-11.54 6.51-15.7l83.77-83.76c8.68-8.68 22.73-8.68 31.4 0 8.68 8.68 8.68 22.73 0 31.4l-68.07 68.06 68.07 68.04c8.68 8.66 8.68 22.73 0 31.4a22.1 22.1 0 0 1-15.7 6.51zM677.39 682.6a22.1 22.1 0 0 1-15.7-6.51c-8.68-8.68-8.68-22.74 0-31.4l68.07-68.04-68.07-68.06c-8.68-8.68-8.68-22.73 0-31.4 8.68-8.68 22.73-8.68 31.4 0l83.77 83.76c4.16 4.16 6.51 9.82 6.51 15.7 0 5.9-2.34 11.54-6.51 15.7l-83.77 83.74a22.133 22.133 0 0 1-15.7 6.51zM452.73 701.43c-3.76 0-7.58-0.95-11.08-2.98-10.61-6.13-14.26-19.71-8.13-30.33l118.44-205.15c6.13-10.61 19.66-14.3 30.33-8.13 10.61 6.13 14.26 19.71 8.13 30.33L471.99 690.32c-4.1 7.13-11.56 11.11-19.26 11.11z" p-id="7694" fill="#4282fd"></path></svg>