<?xml version="1.0" standalone="no"?><!DOCTYPE svg PUBLIC "-//W3C//DTD SVG 1.1//EN" "http://www.w3.org/Graphics/SVG/1.1/DTD/svg11.dtd"><svg t="1657799894918" class="icon" viewBox="0 0 1024 1024" version="1.1" xmlns="http://www.w3.org/2000/svg" p-id="2786" xmlns:xlink="http://www.w3.org/1999/xlink" width="128" height="128"><defs><style type="text/css">@font-face { font-family: feedback-iconfont; src: url("//at.alicdn.com/t/font_1031158_u69w8yhxdu.woff2?t=1630033759944") format("woff2"), url("//at.alicdn.com/t/font_1031158_u69w8yhxdu.woff?t=1630033759944") format("woff"), url("//at.alicdn.com/t/font_1031158_u69w8yhxdu.ttf?t=1630033759944") format("truetype"); }
</style></defs><path d="M331.264 820.266667c25.173333-11.093333 53.333333-13.184 79.701333-5.930667 32.853333 8.96 66.773333 13.482667 101.034667 13.397333 195.626667 0 341.333333-140.245333 341.333333-328.533333S707.626667 170.666667 512 170.666667s-341.333333 140.245333-341.333333 328.533333c0 96.853333 38.229333 182.272 105.216 242.176a119.466667 119.466667 0 0 1 40.192 85.589333l15.189333-6.698666zM512 85.333333c240.384 0 426.666667 176.085333 426.666667 413.866667 0 237.781333-186.282667 413.866667-426.666667 413.866667a464.810667 464.810667 0 0 1-123.52-16.384 34.133333 34.133333 0 0 0-22.784 1.664l-84.650667 37.376a34.133333 34.133333 0 0 1-47.914666-30.165334l-2.346667-75.946666a34.005333 34.005333 0 0 0-11.434667-24.32C136.32 731.093333 85.333333 623.658667 85.333333 499.2 85.333333 261.418667 271.658667 85.333333 512 85.333333zM255.786667 620.245333l125.312-198.826666a64 64 0 0 1 92.586666-17.066667l99.669334 74.666667a25.6 25.6 0 0 0 30.848 0l134.613333-102.229334c17.962667-13.610667 41.429333 7.893333 29.397333 27.008l-125.312 198.826667a64 64 0 0 1-92.586666 17.066667l-99.669334-74.666667a25.6 25.6 0 0 0-30.848 0l-134.613333 102.186667c-17.962667 13.610667-41.429333-7.893333-29.397333-27.008z" p-id="2787" fill="#4282fd"></path></svg>