<?xml version="1.0" standalone="no"?><!DOCTYPE svg PUBLIC "-//W3C//DTD SVG 1.1//EN" "http://www.w3.org/Graphics/SVG/1.1/DTD/svg11.dtd"><svg t="1657796645738" class="icon" viewBox="0 0 1024 1024" version="1.1" xmlns="http://www.w3.org/2000/svg" p-id="106969" xmlns:xlink="http://www.w3.org/1999/xlink" width="128" height="128"><defs><style type="text/css">@font-face { font-family: feedback-iconfont; src: url("//at.alicdn.com/t/font_1031158_u69w8yhxdu.woff2?t=1630033759944") format("woff2"), url("//at.alicdn.com/t/font_1031158_u69w8yhxdu.woff?t=1630033759944") format("woff"), url("//at.alicdn.com/t/font_1031158_u69w8yhxdu.ttf?t=1630033759944") format("truetype"); }
</style></defs><path d="M630.485333 598.954667l113.066667-167.253334c11.178667-16.469333-10.026667-34.346667-26.24-22.570666l-121.941333 85.973333a24.362667 24.362667 0 0 1-27.818667 0l-90.282667-63.018667c-27.008-18.645333-65.621333-11.818667-83.754666 14.293334l-113.066667 167.253333c-11.178667 16.469333 10.026667 34.389333 26.24 22.570667l121.941333-85.973334a24.362667 24.362667 0 0 1 27.818667 0l90.282667 61.952c27.008 19.712 65.621333 12.885333 83.754666-13.226666z" fill="#4282fd" p-id="106970"></path><path d="M512 96c-229.76 0-416 186.24-416 416a414.890667 414.890667 0 0 0 128 300.202667V917.333333a32 32 0 0 0 42.112 30.378667l118.613333-39.552A415.786667 415.786667 0 0 0 512 928c229.76 0 416-186.24 416-416S741.76 96 512 96zM160 512a352 352 0 1 1 235.349333 332.245333 32 32 0 0 0-20.736-0.170666l-86.613333 28.842666v-74.666666a32 32 0 0 0-10.666667-23.893334A351.061333 351.061333 0 0 1 160 512z" fill="#4282fd" p-id="106971"></path></svg>