<?xml version="1.0" standalone="no"?><!DOCTYPE svg PUBLIC "-//W3C//DTD SVG 1.1//EN" "http://www.w3.org/Graphics/SVG/1.1/DTD/svg11.dtd"><svg t="1657789871449" class="icon" viewBox="0 0 1024 1024" version="1.1" xmlns="http://www.w3.org/2000/svg" p-id="2716" xmlns:xlink="http://www.w3.org/1999/xlink" width="128" height="128"><defs><style type="text/css">@font-face { font-family: feedback-iconfont; src: url("//at.alicdn.com/t/font_1031158_u69w8yhxdu.woff2?t=1630033759944") format("woff2"), url("//at.alicdn.com/t/font_1031158_u69w8yhxdu.woff?t=1630033759944") format("woff"), url("//at.alicdn.com/t/font_1031158_u69w8yhxdu.ttf?t=1630033759944") format("truetype"); }
</style></defs><path d="M860.2 64.2H264c-110.5 0-200 89.5-200 200v538.9c-0.3 3.7-0.4 7.4-0.4 11.1h0.5C66.6 895 132.8 959.6 214 959.6h646.2c55.2 0 100-44.8 100-100V164.2c0-55.2-44.8-100-100-100zM499.4 473.4l-58.7-52.1c-0.1-0.1-0.2-0.1-0.2-0.2-0.3-0.3-0.7-0.6-1-0.8-0.1-0.1-0.3-0.2-0.4-0.3-0.4-0.3-0.7-0.5-1.1-0.8-0.1-0.1-0.3-0.2-0.4-0.3-0.3-0.2-0.7-0.5-1.1-0.7-0.2-0.1-0.3-0.2-0.5-0.3-0.3-0.2-0.7-0.4-1-0.6l-0.6-0.3c-0.3-0.2-0.6-0.3-0.9-0.5-0.2-0.1-0.5-0.3-0.7-0.4-0.3-0.1-0.5-0.3-0.8-0.4-0.3-0.1-0.6-0.3-0.9-0.4-0.2-0.1-0.4-0.2-0.7-0.3-0.3-0.1-0.7-0.3-1-0.4-0.2-0.1-0.4-0.1-0.6-0.2-0.4-0.1-0.7-0.3-1.1-0.4-0.2-0.1-0.3-0.1-0.5-0.2l-1.2-0.3c-0.2 0-0.3-0.1-0.5-0.1l-1.2-0.3c-0.2 0-0.3-0.1-0.5-0.1-0.4-0.1-0.8-0.2-1.2-0.2-0.2 0-0.3-0.1-0.5-0.1-0.4-0.1-0.8-0.1-1.2-0.2-0.2 0-0.4 0-0.6-0.1-0.4 0-0.7-0.1-1.1-0.1h-5.1c-0.3 0-0.7 0.1-1 0.1-0.2 0-0.4 0-0.7 0.1-0.4 0-0.7 0.1-1.1 0.1-0.2 0-0.4 0.1-0.6 0.1-0.4 0.1-0.8 0.1-1.2 0.2-0.2 0-0.4 0.1-0.5 0.1l-1.2 0.3c-0.2 0-0.4 0.1-0.5 0.1-0.4 0.1-0.7 0.2-1.1 0.3-0.2 0.1-0.4 0.1-0.6 0.2-0.4 0.1-0.7 0.2-1 0.4-0.2 0.1-0.4 0.1-0.6 0.2-0.3 0.1-0.6 0.2-0.9 0.4-0.2 0.1-0.5 0.2-0.7 0.3-0.3 0.1-0.5 0.2-0.8 0.4-0.3 0.1-0.6 0.3-0.8 0.4-0.2 0.1-0.5 0.2-0.7 0.3-0.3 0.2-0.6 0.3-1 0.5-0.2 0.1-0.4 0.2-0.5 0.3-0.4 0.2-0.7 0.4-1 0.6-0.1 0.1-0.3 0.2-0.4 0.3-0.4 0.2-0.7 0.5-1.1 0.7-0.1 0.1-0.2 0.2-0.4 0.3-0.4 0.3-0.7 0.5-1.1 0.8-0.1 0.1-0.2 0.2-0.4 0.3-0.3 0.3-0.7 0.6-1 0.9-0.1 0.1-0.2 0.1-0.2 0.2L332.7 474V136.2h166.7v337.2zM173.5 173.7c23.4-23.4 54.2-36.6 87.2-37.4V555.7c0 0.3 0 0.7 0.1 1 0 0.3 0.1 0.5 0.1 0.8 0 0.3 0.1 0.6 0.1 0.9 0 0.3 0.1 0.6 0.1 0.9 0 0.3 0.1 0.6 0.2 0.9 0.1 0.3 0.1 0.6 0.2 0.9 0.1 0.3 0.1 0.5 0.2 0.8 0.1 0.3 0.1 0.6 0.2 0.9 0.1 0.3 0.1 0.5 0.2 0.8l0.3 0.9c0.1 0.3 0.2 0.5 0.3 0.8 0.1 0.3 0.2 0.6 0.3 0.8 0.1 0.3 0.2 0.5 0.3 0.8 0.1 0.3 0.2 0.5 0.3 0.8 0.1 0.3 0.2 0.6 0.4 0.8 0.1 0.3 0.2 0.5 0.4 0.8 0.1 0.3 0.3 0.5 0.4 0.8 0.1 0.3 0.3 0.5 0.4 0.8 0.1 0.3 0.3 0.5 0.4 0.8 0.2 0.3 0.3 0.5 0.5 0.8 0.1 0.2 0.3 0.5 0.5 0.7 0.2 0.3 0.4 0.5 0.5 0.8 0.2 0.2 0.3 0.4 0.5 0.6 0.2 0.3 0.4 0.5 0.6 0.8 0.2 0.2 0.3 0.4 0.5 0.6 0.2 0.3 0.5 0.6 0.7 0.8l0.3 0.3 0.2 0.2c0.3 0.3 0.6 0.6 0.8 0.9l0.5 0.5 0.8 0.8c0.9 0.9 1.9 1.7 2.9 2.5 0.1 0.1 0.3 0.2 0.4 0.3 0.3 0.2 0.7 0.5 1 0.7 0.2 0.1 0.3 0.2 0.5 0.4 0.3 0.2 0.6 0.4 1 0.6 0.2 0.1 0.4 0.3 0.6 0.4 0.3 0.2 0.6 0.4 0.9 0.5 0.2 0.1 0.5 0.3 0.7 0.4 0.3 0.1 0.5 0.3 0.8 0.4 0.3 0.1 0.6 0.3 0.9 0.4 0.2 0.1 0.5 0.2 0.7 0.3 0.4 0.2 0.7 0.3 1.1 0.5 0.2 0.1 0.4 0.1 0.5 0.2 0.5 0.2 0.9 0.3 1.4 0.5 0.1 0 0.2 0.1 0.3 0.1 0.6 0.2 1.1 0.3 1.7 0.5h0.1c3 0.8 6.1 1.2 9.3 1.2h2.3c0.4 0 0.8-0.1 1.1-0.1 0.2 0 0.5-0.1 0.7-0.1 0.3 0 0.7-0.1 1-0.1 0.3 0 0.5-0.1 0.8-0.1 0.3 0 0.6-0.1 0.9-0.2 0.3 0 0.5-0.1 0.8-0.2 0.3-0.1 0.6-0.1 0.9-0.2 0.3-0.1 0.5-0.1 0.8-0.2l0.9-0.3c0.2-0.1 0.5-0.1 0.7-0.2 0.4-0.1 0.7-0.2 1.1-0.4 0.2-0.1 0.3-0.1 0.5-0.2 0.5-0.2 1-0.4 1.6-0.6 0.1 0 0.2-0.1 0.3-0.1 0.4-0.2 0.9-0.4 1.3-0.6 0.2-0.1 0.3-0.2 0.5-0.2 0.4-0.2 0.7-0.4 1-0.5 0.2-0.1 0.4-0.2 0.5-0.3 0.3-0.2 0.6-0.3 0.9-0.5 0.2-0.1 0.4-0.2 0.6-0.4 0.3-0.2 0.6-0.3 0.8-0.5 0.2-0.1 0.4-0.3 0.6-0.4 0.2-0.2 0.5-0.3 0.7-0.5 0.2-0.2 0.5-0.3 0.7-0.5 0.2-0.2 0.4-0.3 0.7-0.5 0.2-0.2 0.5-0.4 0.7-0.6 0.1-0.1 0.3-0.2 0.4-0.3l96.2-84.3 94.9 84.1c0.2 0.1 0.3 0.3 0.5 0.4 0.2 0.2 0.4 0.4 0.7 0.6 0.2 0.2 0.5 0.4 0.7 0.5 0.2 0.2 0.4 0.3 0.7 0.5 0.3 0.2 0.5 0.4 0.8 0.6 0.2 0.1 0.4 0.3 0.6 0.4l0.9 0.6c0.2 0.1 0.3 0.2 0.5 0.3 0.4 0.2 0.7 0.4 1.1 0.6 0.1 0.1 0.2 0.1 0.3 0.2 0.5 0.3 1 0.5 1.5 0.8 0.5 0.3 1 0.5 1.6 0.7 0.1 0 0.2 0.1 0.2 0.1 0.4 0.2 0.9 0.4 1.3 0.5 0.2 0.1 0.4 0.1 0.6 0.2 0.3 0.1 0.7 0.2 1 0.3 0.2 0.1 0.5 0.1 0.7 0.2l0.9 0.3c0.3 0.1 0.5 0.1 0.8 0.2 0.3 0.1 0.6 0.1 0.9 0.2 0.3 0.1 0.5 0.1 0.8 0.2 0.3 0.1 0.6 0.1 0.9 0.2 0.3 0 0.5 0.1 0.8 0.1 0.3 0 0.7 0.1 1 0.1 0.2 0 0.5 0.1 0.7 0.1 0.4 0 0.8 0.1 1.1 0.1h2.3c3.8 0 7.5-0.6 11-1.7 0.1 0 0.2-0.1 0.2-0.1 0.5-0.2 1-0.3 1.5-0.5 0.2-0.1 0.3-0.1 0.5-0.2 0.4-0.2 0.8-0.3 1.1-0.5 0.2-0.1 0.5-0.2 0.7-0.3 0.3-0.1 0.6-0.3 0.9-0.4 0.3-0.1 0.6-0.3 0.8-0.4 0.2-0.1 0.5-0.3 0.7-0.4 0.3-0.2 0.6-0.3 0.9-0.5 0.2-0.1 0.4-0.2 0.6-0.4 0.3-0.2 0.6-0.4 1-0.6 0.2-0.1 0.4-0.2 0.5-0.4 0.3-0.2 0.6-0.4 1-0.7 0.2-0.1 0.3-0.3 0.5-0.4 0.3-0.2 0.6-0.5 0.9-0.7 0.2-0.1 0.3-0.3 0.5-0.4 0.4-0.3 0.7-0.6 1.1-1 0.4-0.3 0.7-0.7 1-1 0.1-0.1 0.3-0.3 0.4-0.5l0.9-0.9 0.1-0.1c0.1-0.1 0.2-0.3 0.4-0.4 0.2-0.3 0.5-0.5 0.7-0.8 0.2-0.2 0.3-0.4 0.5-0.6 0.2-0.3 0.4-0.5 0.6-0.8 0.2-0.2 0.3-0.5 0.5-0.7 0.2-0.2 0.3-0.5 0.5-0.7 0.2-0.3 0.3-0.5 0.5-0.8 0.1-0.2 0.3-0.5 0.4-0.7 0.2-0.3 0.3-0.5 0.5-0.8 0.1-0.2 0.3-0.5 0.4-0.7 0.1-0.3 0.3-0.6 0.4-0.8 0.1-0.2 0.2-0.5 0.4-0.7 0.1-0.3 0.3-0.6 0.4-0.8 0.1-0.3 0.2-0.5 0.3-0.8 0.1-0.3 0.2-0.6 0.3-0.8 0.1-0.3 0.2-0.6 0.3-0.8 0.1-0.3 0.2-0.5 0.3-0.8l0.3-0.9c0.1-0.3 0.2-0.5 0.2-0.8 0.1-0.3 0.2-0.6 0.2-0.9 0.1-0.3 0.1-0.5 0.2-0.8 0.1-0.3 0.1-0.6 0.2-0.9 0.1-0.3 0.1-0.6 0.2-0.9 0-0.3 0.1-0.6 0.1-0.9 0-0.3 0.1-0.6 0.1-0.9 0-0.3 0.1-0.5 0.1-0.8 0-0.3 0.1-0.7 0.1-1v-0.8-1.1-417.9h288.8c15.4 0 28 12.6 28 28v504H209.7c-26.9 0-52 7.3-73.7 20v-424c0-34.2 13.3-66.3 37.5-90.5z m686.7 713.9H214c-43 0-78-35-78-78v-3.1c3.9-37.2 35.5-66.2 73.7-66.2h678.5v119.3c0 15.4-12.6 28-28 28z" p-id="2717" fill="#4282fd"></path></svg>