<?xml version="1.0" standalone="no"?><!DOCTYPE svg PUBLIC "-//W3C//DTD SVG 1.1//EN" "http://www.w3.org/Graphics/SVG/1.1/DTD/svg11.dtd"><svg t="1659514459975" class="icon" viewBox="0 0 1024 1024" version="1.1" xmlns="http://www.w3.org/2000/svg" p-id="7194" xmlns:xlink="http://www.w3.org/1999/xlink" width="128" height="128"><defs><style type="text/css">@font-face { font-family: feedback-iconfont; src: url("//at.alicdn.com/t/font_1031158_u69w8yhxdu.woff2?t=1630033759944") format("woff2"), url("//at.alicdn.com/t/font_1031158_u69w8yhxdu.woff?t=1630033759944") format("woff"), url("//at.alicdn.com/t/font_1031158_u69w8yhxdu.ttf?t=1630033759944") format("truetype"); }
</style></defs><path d="M152.609032 796.738065c0 13.873548-11.230968 25.104516-25.104516 25.104516-13.873548 0-25.765161-11.230968-25.765161-25.104516 0-134.771613 121.55871-281.434839 271.525161-281.434839 149.966452 0 271.525161 146.663226 271.525161 281.434839 0 13.873548-11.230968 25.104516-25.104516 25.104516-13.873548 0-25.104516-11.230968-25.104516-25.104516 0-104.381935-98.436129-230.565161-220.655484-230.565162-122.88 0-221.316129 126.183226-221.316129 230.565162" p-id="7195" fill="#4282fd"></path><path d="M373.264516 430.740645c46.905806 0 84.562581-38.317419 84.562581-84.56258s-38.317419-84.562581-84.562581-84.562581c-46.905806 0-84.562581 38.317419-84.562581 84.562581s37.656774 84.562581 84.562581 84.56258m0 50.869678C298.611613 481.610323 237.832258 420.830968 237.832258 346.178065s60.779355-135.432258 135.432258-135.432259C447.917419 210.085161 508.696774 270.864516 508.696774 345.517419c0 75.313548-60.779355 136.092903-135.432258 136.092904zM915.654194 396.387097h-186.301936 186.301936z" p-id="7196" fill="#4282fd"></path><path d="M595.901935 396.387097h284.07742c13.873548 0 25.104516-11.230968 25.104516-25.765162 0-13.873548-11.230968-25.104516-25.104516-25.104516h-284.07742c-13.873548 0-25.104516 11.230968-25.104516 25.104516-0.660645 14.534194 10.570323 25.765161 25.104516 25.765162" p-id="7197" fill="#4282fd"></path><path d="M646.771613 548.996129h233.207742c13.873548 0 25.104516-11.230968 25.104516-25.765161 0-13.873548-11.230968-25.104516-25.104516-25.104516H646.771613c-13.873548 0-25.104516 11.230968-25.104516 25.104516-0.660645 14.534194 10.570323 25.765161 25.104516 25.765161" p-id="7198" fill="#4282fd"></path><path d="M714.157419 701.605161h165.161291c13.873548 0 25.104516-11.230968 25.104516-25.765161 0-13.873548-11.230968-25.104516-25.104516-25.104516h-165.161291c-13.873548 0-25.104516 11.230968-25.104516 25.104516 0 14.534194 11.230968 25.765161 25.104516 25.765161" p-id="7199" fill="#4282fd"></path></svg>