<?xml version="1.0" standalone="no"?><!DOCTYPE svg PUBLIC "-//W3C//DTD SVG 1.1//EN" "http://www.w3.org/Graphics/SVG/1.1/DTD/svg11.dtd"><svg t="1657790049731" class="icon" viewBox="0 0 1024 1024" version="1.1" xmlns="http://www.w3.org/2000/svg" p-id="2966" xmlns:xlink="http://www.w3.org/1999/xlink" width="128" height="128"><defs><style type="text/css">@font-face { font-family: feedback-iconfont; src: url("//at.alicdn.com/t/font_1031158_u69w8yhxdu.woff2?t=1630033759944") format("woff2"), url("//at.alicdn.com/t/font_1031158_u69w8yhxdu.woff?t=1630033759944") format("woff"), url("//at.alicdn.com/t/font_1031158_u69w8yhxdu.ttf?t=1630033759944") format("truetype"); }
</style></defs><path d="M774.929 560.071c3.905-3.905 10.237-3.905 14.142 0L956.93 727.93c3.905 3.905 3.905 10.237 0 14.142L789.07 909.93a10 10 0 0 1-7.071 2.929c-5.523 0-10-4.477-10-10V771.693l-189.326-0.454c-59.193-0.142-109.479-38.083-128.033-90.944L519 615.936v19.304c0 34.933 27.992 63.341 62.79 63.988l1.057 0.011 189.153 0.454v-132.55a10 10 0 0 1 2.699-6.834zM174 332c-60.751 0-110-49.249-110-110s49.249-110 110-110c48.143 0 89.063 30.928 103.974 74H383c74.36 0 134.78 59.678 135.982 133.751L519 322v28.064l-72 72V322c0-34.993-28.084-63.426-62.942-63.991L383 258l-105.027 0.002C263.062 301.072 222.143 332 174 332z m0-148c-20.987 0-38 17.013-38 38s17.013 38 38 38 38-17.013 38-38-17.013-38-38-38zM205.986 796.014c-13.919-13.918-14.058-36.398-0.418-50.487l0.418-0.424 509.117-509.117c14.058-14.06 36.852-14.06 50.911 0 13.919 13.918 14.058 36.398 0.418 50.487l-0.418 0.424-509.117 509.117c-14.058 14.06-36.852 14.06-50.911 0z" p-id="2967" fill="#4282fd"></path></svg>