<?xml version="1.0" standalone="no"?><!DOCTYPE svg PUBLIC "-//W3C//DTD SVG 1.1//EN" "http://www.w3.org/Graphics/SVG/1.1/DTD/svg11.dtd"><svg t="1658298954771" class="icon" viewBox="0 0 1024 1024" version="1.1" xmlns="http://www.w3.org/2000/svg" p-id="12940" xmlns:xlink="http://www.w3.org/1999/xlink" width="128" height="128"><defs><style type="text/css">@font-face { font-family: feedback-iconfont; src: url("//at.alicdn.com/t/font_1031158_u69w8yhxdu.woff2?t=1630033759944") format("woff2"), url("//at.alicdn.com/t/font_1031158_u69w8yhxdu.woff?t=1630033759944") format("woff"), url("//at.alicdn.com/t/font_1031158_u69w8yhxdu.ttf?t=1630033759944") format("truetype"); }
</style></defs><path d="M564.62361 381.627317h-124.878049c-37.463415 0-69.931707-29.970732-69.931707-69.931707v-122.380488c0-37.463415 29.970732-69.931707 69.931707-69.931707h124.878049c37.463415 0 69.931707 29.970732 69.931707 69.931707v124.878049c-2.497561 37.463415-32.468293 67.434146-69.931707 67.434146z m-124.878049-224.780488c-17.482927 0-29.970732 14.985366-29.970732 29.970732v124.878049c0 17.482927 14.985366 29.970732 29.970732 29.970731h124.878049c17.482927 0 29.970732-14.985366 29.970731-29.970731v-122.380488c0-17.482927-14.985366-29.970732-29.970731-29.970732h-124.878049zM564.62361 906.115122h-124.878049c-37.463415 0-69.931707-29.970732-69.931707-69.931707v-124.878049c0-37.463415 29.970732-69.931707 69.931707-69.931707h124.878049c37.463415 0 69.931707 29.970732 69.931707 69.931707v124.878049c-2.497561 39.960976-32.468293 69.931707-69.931707 69.931707z m-124.878049-224.780488c-17.482927 0-29.970732 14.985366-29.970732 29.970732v124.878049c0 17.482927 14.985366 29.970732 29.970732 29.970731h124.878049c17.482927 0 29.970732-14.985366 29.970731-29.970731v-124.878049c0-17.482927-14.985366-29.970732-29.970731-29.970732h-124.878049zM227.452878 906.115122h-124.878049c-37.463415 0-69.931707-29.970732-69.931707-69.931707v-124.878049c0-37.463415 29.970732-69.931707 69.931707-69.931707h124.878049c37.463415 0 69.931707 29.970732 69.931707 69.931707v124.878049c-2.497561 39.960976-32.468293 69.931707-69.931707 69.931707z m-124.878049-224.780488c-17.482927 0-29.970732 14.985366-29.970731 29.970732v124.878049c0 17.482927 14.985366 29.970732 29.970731 29.970731h124.878049c17.482927 0 29.970732-14.985366 29.970732-29.970731v-124.878049c0-17.482927-14.985366-29.970732-29.970732-29.970732h-124.878049zM901.794341 906.115122h-124.878048c-37.463415 0-69.931707-29.970732-69.931708-69.931707v-124.878049c0-37.463415 29.970732-69.931707 69.931708-69.931707h124.878048c37.463415 0 69.931707 29.970732 69.931708 69.931707v124.878049c-2.497561 39.960976-32.468293 69.931707-69.931708 69.931707z m-124.878048-224.780488c-17.482927 0-29.970732 14.985366-29.970732 29.970732v124.878049c0 17.482927 14.985366 29.970732 29.970732 29.970731h124.878048c17.482927 0 29.970732-14.985366 29.970732-29.970731v-124.878049c0-17.482927-14.985366-29.970732-29.970732-29.970732h-124.878048z" p-id="12941" fill="#4282fd"></path><path d="M844.350439 681.334634c-9.990244 0-19.980488-7.492683-19.980488-19.980488v-97.404878c0-17.482927-14.985366-32.468293-29.970731-32.468292h-556.956098c-17.482927 0-29.970732 14.985366-29.970732 32.468292v99.902439c0 9.990244-7.492683 19.980488-19.980488 19.980488s-17.482927-9.990244-17.482926-19.980488v-97.404878c0-37.463415 29.970732-69.931707 69.931707-69.931707h556.956097c37.463415 0 69.931707 29.970732 69.931708 69.931707v97.404878c-4.995122 9.990244-12.487805 17.482927-22.478049 17.482927z" p-id="12942" fill="#4282fd"></path><path d="M497.189463 673.841951c-9.990244 0-19.980488-7.492683-19.980487-19.980488v-272.234146c0-9.990244 7.492683-19.980488 19.980487-19.980488s19.980488 7.492683 19.980488 19.980488v272.234146c0 9.990244-9.990244 19.980488-19.980488 19.980488z" p-id="12943" fill="#4282fd"></path></svg>