<?xml version="1.0" standalone="no"?><!DOCTYPE svg PUBLIC "-//W3C//DTD SVG 1.1//EN" "http://www.w3.org/Graphics/SVG/1.1/DTD/svg11.dtd"><svg t="1658306751507" class="icon" viewBox="0 0 1024 1024" version="1.1" xmlns="http://www.w3.org/2000/svg" p-id="1852" xmlns:xlink="http://www.w3.org/1999/xlink" width="128" height="128"><defs><style type="text/css">@font-face { font-family: feedback-iconfont; src: url("//at.alicdn.com/t/font_1031158_u69w8yhxdu.woff2?t=1630033759944") format("woff2"), url("//at.alicdn.com/t/font_1031158_u69w8yhxdu.woff?t=1630033759944") format("woff"), url("//at.alicdn.com/t/font_1031158_u69w8yhxdu.ttf?t=1630033759944") format("truetype"); }
</style></defs><path d="M650.685 334.797h-276.03c-22.564 0-40.909-20.642-40.909-46.001V125.21c0-25.359 18.345-46.001 40.909-46.001h276.03c22.539 0 40.884 20.642 40.884 46.001v163.586c0 25.36-18.346 46.001-40.884 46.001zM384.863 283.68h255.588V130.327H384.863V283.68z m265.822-153.353h0.499-0.499zM333.595 943.092H149.567c-48.746 0-86.91-29.178-86.91-66.443V753.947c0-37.265 38.164-66.443 86.91-66.443h184.029c48.722 0 86.885 29.178 86.885 66.443v122.702c-0.001 37.265-38.164 66.443-86.886 66.443z m-184.028-204.47c-23.487 0-35.792 11.382-35.792 15.325v122.702c0 3.944 12.305 15.325 35.792 15.325h184.029c23.462 0 35.767-11.382 35.767-15.325V753.947c0-3.944-12.305-15.325-35.767-15.325H149.567zM875.747 943.092H691.743c-48.746 0-86.91-29.178-86.91-66.443V753.947c0-37.265 38.164-66.443 86.91-66.443h184.004c48.746 0 86.91 29.178 86.91 66.443v122.702c0 37.265-38.164 66.443-86.91 66.443z m-184.004-204.47c-23.487 0-35.792 11.382-35.792 15.325v122.702c0 3.944 12.305 15.325 35.792 15.325h184.004c23.487 0 35.792-11.382 35.792-15.325V753.947c0-3.944-12.305-15.325-35.792-15.325H691.743z" fill="#4282fd" p-id="1853"></path><path d="M781.025 709.594c-14.127 0-25.559-11.432-25.559-25.559V566.874c0-17.597-10.858-33.022-23.238-33.022H293.086c-12.38 0-23.238 15.425-23.238 33.022v117.161c0 14.127-11.432 25.559-25.559 25.559s-25.559-11.432-25.559-25.559V566.874c0-46.4 33.346-84.139 74.355-84.139h439.142c41.009 0 74.355 37.739 74.355 84.139v117.161c0.001 14.127-11.43 25.559-25.557 25.559z" fill="#4282fd" p-id="1854"></path><path d="M512.657 533.852c-14.127 0-25.559-11.432-25.559-25.559V332.551c0-14.127 11.432-25.559 25.559-25.559s25.559 11.432 25.559 25.559v175.742c0 14.127-11.432 25.559-25.559 25.559z" fill="#4282fd" p-id="1855"></path></svg>