<?xml version="1.0" standalone="no"?><!DOCTYPE svg PUBLIC "-//W3C//DTD SVG 1.1//EN" "http://www.w3.org/Graphics/SVG/1.1/DTD/svg11.dtd"><svg t="1657797236368" class="icon" viewBox="0 0 1024 1024" version="1.1" xmlns="http://www.w3.org/2000/svg" p-id="135210" xmlns:xlink="http://www.w3.org/1999/xlink" width="128" height="128"><defs><style type="text/css">@font-face { font-family: feedback-iconfont; src: url("//at.alicdn.com/t/font_1031158_u69w8yhxdu.woff2?t=1630033759944") format("woff2"), url("//at.alicdn.com/t/font_1031158_u69w8yhxdu.woff?t=1630033759944") format("woff"), url("//at.alicdn.com/t/font_1031158_u69w8yhxdu.ttf?t=1630033759944") format("truetype"); }
</style></defs><path d="M303.286857 955.355429c21.430857 0 36.004571-11.154286 61.714286-34.285715l148.297143-131.565714h274.706285c127.707429 0 196.278857-70.710857 196.278858-196.297143V264.923429c0-125.568-68.571429-196.278857-196.278858-196.278858H235.995429c-127.268571 0-196.278857 70.290286-196.278858 196.278858v328.283428c0 126.006857 68.992 196.297143 196.278858 196.297143h20.571428v111.414857c0 33.005714 17.152 54.436571 46.72 54.436572z m17.554286-78.427429V752.64c0-23.131429-8.557714-32.146286-32.128-32.146286h-52.297143c-86.985143 0-127.707429-44.141714-127.707429-127.707428v-327.862857c0-83.565714 40.722286-127.268571 127.725715-127.268572h551.570285c86.564571 0 127.268571 43.702857 127.268572 127.268572v327.862857c0 83.565714-40.704 127.707429-127.268572 127.707428H510.281143c-23.570286 0-35.986286 3.437714-52.297143 20.150857z m193.737143-237.860571c23.131429 0 36.845714-15.853714 36.845714-41.142858v-124.288h129.865143c23.990857 0 41.142857-12.434286 41.142857-35.565714 0-23.570286-15.853714-36.425143-41.142857-36.425143h-129.865143v-132.425143c0-25.289143-13.714286-41.142857-36.845714-41.142857-23.149714 0-35.584 16.713143-35.584 41.142857v132.425143h-129.846857c-24.868571 0-41.142857 12.854857-41.142858 36.425143 0 23.149714 17.133714 35.565714 41.142858 35.565714h129.846857V597.942857c0 24.429714 12.434286 41.142857 35.584 41.142857z" p-id="135211" fill="#4282fd"></path></svg>