<?xml version="1.0" standalone="no"?><!DOCTYPE svg PUBLIC "-//W3C//DTD SVG 1.1//EN" "http://www.w3.org/Graphics/SVG/1.1/DTD/svg11.dtd"><svg t="1657790764748" class="icon" viewBox="0 0 1024 1024" version="1.1" xmlns="http://www.w3.org/2000/svg" p-id="43087" xmlns:xlink="http://www.w3.org/1999/xlink" width="128" height="128"><defs><style type="text/css">@font-face { font-family: feedback-iconfont; src: url("//at.alicdn.com/t/font_1031158_u69w8yhxdu.woff2?t=1630033759944") format("woff2"), url("//at.alicdn.com/t/font_1031158_u69w8yhxdu.woff?t=1630033759944") format("woff"), url("//at.alicdn.com/t/font_1031158_u69w8yhxdu.ttf?t=1630033759944") format("truetype"); }
</style></defs><path d="M651.377778 691.2H1024v102.4H591.644444c25.6-31.288889 45.511111-65.422222 59.733334-102.4zM568.888889 384h455.111111v102.4H642.844444c-17.066667-36.977778-42.666667-73.955556-73.955555-102.4zM204.8 76.8H1024v102.4H204.8V76.8zM0 605.866667c0 130.844444 102.4 241.777778 244.622222 267.377777l45.511111 65.422223c2.844444 5.688889 11.377778 8.533333 17.066667 8.533333 5.688889 0 14.222222-2.844444 17.066667-8.533333l45.511111-65.422223c142.222222-25.6 244.622222-136.533333 244.622222-267.377777 0-150.755556-136.533333-273.066667-307.2-273.066667C136.533333 332.8 0 455.111111 0 605.866667z m307.2 45.511111c-25.6 0-42.666667-19.911111-42.666667-45.511111 0-25.6 19.911111-45.511111 42.666667-45.511111s42.666667 19.911111 42.666667 45.511111c0 25.6-17.066667 45.511111-42.666667 45.511111z m-153.6 0c-25.6 0-42.666667-19.911111-42.666667-45.511111 0-25.6 19.911111-45.511111 42.666667-45.511111 25.6 0 42.666667 19.911111 42.666667 45.511111 0 25.6-17.066667 45.511111-42.666667 45.511111z m307.2 0c-25.6 0-42.666667-19.911111-42.666667-45.511111 0-25.6 19.911111-45.511111 42.666667-45.511111 25.6 0 42.666667 19.911111 42.666667 45.511111 0 25.6-17.066667 45.511111-42.666667 45.511111z" fill="#4282fd" p-id="43088"></path></svg>